<svg width="744" height="255" viewBox="0 0 744 255" fill="none" xmlns="http://www.w3.org/2000/svg">
<path d="M188.282 232.323C190.193 233.536 190.121 236.341 188.117 237.394C161.43 251.409 129.052 258.456 99.8391 251.963C69.0074 245.111 41.8163 227.059 23.5336 201.305C5.25082 175.551 -2.82216 143.927 0.878591 112.561C4.57934 81.1942 19.7904 52.3178 43.5649 31.5256C67.3394 10.7333 97.9851 -0.494694 129.565 0.0167327C161.145 0.52816 191.411 12.7426 214.499 34.2938C237.588 55.845 251.856 85.1988 254.539 116.669C254.539 152 249.5 165.5 236 190.5L231.908 186.828C222.633 178.504 219.874 165.452 223.776 153.617C227.057 143.665 228.498 135.008 228.498 118.889C226.365 93.8699 215.022 70.5332 196.666 53.3997C178.31 36.2662 154.248 26.5556 129.142 26.149C104.035 25.7424 79.6716 34.6688 60.7705 51.1989C41.8694 67.7291 29.7764 90.6862 26.8342 115.623C23.8921 140.56 30.3102 165.701 44.8453 186.176C59.3803 206.651 82.4884 220.052 107 225.5C126.049 227.741 137.564 228.308 151.342 224.283C161.065 221.443 171.656 221.772 180.208 227.2L188.282 232.323Z" fill="black"/>
<circle cx="207" cy="206" r="17" fill="#9C1447"/>
<path d="M59.7635 166V88.1818H76.2163V122.493H77.2422L105.246 88.1818H124.967L96.0888 123.025L125.309 166H105.626L84.3097 134.006L76.2163 143.886V166H59.7635ZM181.601 88.1818H198.054V138.718C198.054 144.392 196.699 149.357 193.988 153.613C191.303 157.869 187.542 161.187 182.703 163.568C177.865 165.924 172.229 167.102 165.795 167.102C159.335 167.102 153.686 165.924 148.848 163.568C144.01 161.187 140.248 157.869 137.563 153.613C134.878 149.357 133.535 144.392 133.535 138.718V88.1818H149.988V137.312C149.988 140.276 150.634 142.91 151.926 145.216C153.243 147.521 155.092 149.332 157.473 150.649C159.854 151.966 162.628 152.625 165.795 152.625C168.986 152.625 171.76 151.966 174.116 150.649C176.497 149.332 178.334 147.521 179.626 145.216C180.943 142.91 181.601 140.276 181.601 137.312V88.1818Z" fill="black"/>
<path d="M272.815 106V39.0909H286.962V68.5923H287.844L311.922 39.0909H328.878L304.048 69.0497L329.172 106H312.249L293.92 78.4915L286.962 86.9858V106H272.815ZM354.973 106.98C349.899 106.98 345.51 105.902 341.807 103.746C338.126 101.568 335.284 98.5402 333.28 94.6634C331.276 90.7647 330.275 86.2453 330.275 81.1051C330.275 75.9214 331.276 71.3911 333.28 67.5142C335.284 63.6155 338.126 60.5881 341.807 58.4318C345.51 56.2538 349.899 55.1648 354.973 55.1648C360.048 55.1648 364.426 56.2538 368.107 58.4318C371.81 60.5881 374.663 63.6155 376.667 67.5142C378.67 71.3911 379.672 75.9214 379.672 81.1051C379.672 86.2453 378.67 90.7647 376.667 94.6634C374.663 98.5402 371.81 101.568 368.107 103.746C364.426 105.902 360.048 106.98 354.973 106.98ZM355.039 96.1989C357.347 96.1989 359.275 95.5455 360.821 94.2386C362.368 92.91 363.533 91.1023 364.317 88.8153C365.123 86.5284 365.526 83.9257 365.526 81.0071C365.526 78.0885 365.123 75.4858 364.317 73.1989C363.533 70.9119 362.368 69.1042 360.821 67.7756C359.275 66.447 357.347 65.7827 355.039 65.7827C352.708 65.7827 350.748 66.447 349.158 67.7756C347.59 69.1042 346.403 70.9119 345.597 73.1989C344.813 75.4858 344.421 78.0885 344.421 81.0071C344.421 83.9257 344.813 86.5284 345.597 88.8153C346.403 91.1023 347.59 92.91 349.158 94.2386C350.748 95.5455 352.708 96.1989 355.039 96.1989ZM401.333 91.5597L401.365 74.8651H403.391L419.465 55.8182H435.441L413.846 81.0398H410.546L401.333 91.5597ZM388.722 106V39.0909H402.64V106H388.722ZM420.086 106L405.319 84.1435L414.597 74.3097L436.388 106H420.086ZM456.578 106.947C453.377 106.947 450.524 106.392 448.019 105.281C445.514 104.149 443.532 102.482 442.073 100.283C440.635 98.0611 439.917 95.295 439.917 91.9844C439.917 89.1965 440.428 86.8551 441.452 84.9602C442.476 83.0653 443.87 81.5407 445.634 80.3864C447.398 79.232 449.402 78.3608 451.645 77.7727C453.91 77.1847 456.284 76.7708 458.767 76.5312C461.686 76.2263 464.038 75.9432 465.824 75.6818C467.61 75.3987 468.906 74.9848 469.712 74.4403C470.518 73.8958 470.921 73.09 470.921 72.0227V71.8267C470.921 69.7576 470.267 68.1567 468.961 67.0241C467.676 65.8916 465.846 65.3253 463.472 65.3253C460.967 65.3253 458.974 65.8807 457.493 66.9915C456.012 68.0805 455.032 69.4527 454.553 71.108L441.681 70.0625C442.334 67.0133 443.619 64.3778 445.536 62.1562C447.453 59.9129 449.925 58.1922 452.952 56.9943C456.001 55.7746 459.53 55.1648 463.537 55.1648C466.325 55.1648 468.993 55.4915 471.542 56.1449C474.112 56.7983 476.388 57.8111 478.37 59.1832C480.373 60.5554 481.953 62.3196 483.107 64.4759C484.261 66.6103 484.838 69.1695 484.838 72.1534V106H471.64V99.0412H471.248C470.442 100.609 469.364 101.992 468.013 103.19C466.663 104.366 465.04 105.292 463.145 105.967C461.25 106.621 459.061 106.947 456.578 106.947ZM460.564 97.3423C462.612 97.3423 464.419 96.9394 465.988 96.1335C467.556 95.3059 468.786 94.1951 469.679 92.8011C470.572 91.4072 471.019 89.8281 471.019 88.0639V82.7386C470.583 83.0218 469.984 83.2831 469.222 83.5227C468.481 83.7405 467.643 83.9474 466.706 84.1435C465.77 84.3177 464.833 84.4811 463.897 84.6335C462.96 84.7642 462.111 84.884 461.348 84.9929C459.715 85.2325 458.288 85.6136 457.069 86.1364C455.849 86.6591 454.901 87.367 454.226 88.2599C453.551 89.1312 453.213 90.2202 453.213 91.527C453.213 93.4219 453.9 94.8703 455.272 95.8722C456.666 96.8523 458.43 97.3423 460.564 97.3423ZM509.554 76.9886V106H495.636V55.8182H508.9V64.6719H509.488C510.599 61.7533 512.461 59.4446 515.075 57.7457C517.689 56.0251 520.858 55.1648 524.582 55.1648C528.067 55.1648 531.105 55.9271 533.697 57.4517C536.289 58.9763 538.304 61.1544 539.741 63.9858C541.179 66.7955 541.897 70.1496 541.897 74.0483V106H527.98V76.5312C528.002 73.4602 527.217 71.0644 525.627 69.3438C524.038 67.6013 521.849 66.7301 519.061 66.7301C517.188 66.7301 515.532 67.133 514.095 67.9389C512.679 68.7448 511.568 69.9209 510.762 71.4673C509.978 72.992 509.575 74.8324 509.554 76.9886ZM571.358 106.817C567.546 106.817 564.094 105.837 561.001 103.876C557.93 101.894 555.491 98.9867 553.683 95.1534C551.897 91.2983 551.004 86.572 551.004 80.9744C551.004 75.2244 551.93 70.4437 553.781 66.6321C555.633 62.7988 558.094 59.9347 561.165 58.0398C564.258 56.1231 567.644 55.1648 571.325 55.1648C574.135 55.1648 576.476 55.6439 578.349 56.6023C580.244 57.5388 581.769 58.715 582.923 60.1307C584.099 61.5246 584.992 62.8968 585.602 64.2472H586.027V39.0909H599.912V106H586.19V97.9631H585.602C584.949 99.357 584.023 100.74 582.825 102.112C581.649 103.463 580.114 104.584 578.219 105.477C576.346 106.37 574.059 106.817 571.358 106.817ZM575.768 95.7415C578.012 95.7415 579.907 95.1316 581.453 93.9119C583.021 92.6705 584.219 90.9389 585.047 88.7173C585.896 86.4957 586.321 83.893 586.321 80.9091C586.321 77.9252 585.907 75.3333 585.08 73.1335C584.252 70.9337 583.054 69.2348 581.486 68.0369C579.918 66.839 578.012 66.2401 575.768 66.2401C573.482 66.2401 571.554 66.8608 569.986 68.1023C568.418 69.3437 567.231 71.0644 566.425 73.2642C565.619 75.464 565.216 78.0123 565.216 80.9091C565.216 83.8277 565.619 86.4086 566.425 88.652C567.252 90.8736 568.439 92.616 569.986 93.8793C571.554 95.1207 573.482 95.7415 575.768 95.7415ZM314.143 123.091H328.29V166.543C328.29 171.421 327.125 175.69 324.794 179.349C322.485 183.009 319.251 185.862 315.091 187.909C310.931 189.935 306.085 190.947 300.553 190.947C294.999 190.947 290.142 189.935 285.982 187.909C281.821 185.862 278.587 183.009 276.278 179.349C273.97 175.69 272.815 171.421 272.815 166.543V123.091H286.962V165.334C286.962 167.882 287.517 170.147 288.628 172.129C289.76 174.111 291.35 175.669 293.398 176.801C295.445 177.934 297.83 178.5 300.553 178.5C303.297 178.5 305.682 177.934 307.707 176.801C309.755 175.669 311.334 174.111 312.445 172.129C313.577 170.147 314.143 167.882 314.143 165.334V123.091ZM353.585 160.989V190H339.667V139.818H352.931V148.672H353.52C354.63 145.753 356.493 143.445 359.106 141.746C361.72 140.025 364.889 139.165 368.613 139.165C372.098 139.165 375.136 139.927 377.728 141.452C380.32 142.976 382.335 145.154 383.772 147.986C385.21 150.795 385.929 154.15 385.929 158.048V190H372.011V160.531C372.033 157.46 371.249 155.064 369.659 153.344C368.069 151.601 365.88 150.73 363.092 150.73C361.219 150.73 359.564 151.133 358.126 151.939C356.71 152.745 355.6 153.921 354.794 155.467C354.01 156.992 353.607 158.832 353.585 160.989ZM396.898 190V139.818H410.815V190H396.898ZM403.889 133.349C401.82 133.349 400.045 132.663 398.564 131.291C397.105 129.897 396.375 128.231 396.375 126.293C396.375 124.376 397.105 122.732 398.564 121.359C400.045 119.965 401.82 119.268 403.889 119.268C405.958 119.268 407.723 119.965 409.182 121.359C410.663 122.732 411.403 124.376 411.403 126.293C411.403 128.231 410.663 129.897 409.182 131.291C407.723 132.663 405.958 133.349 403.889 133.349ZM468.748 139.818L451.204 190H435.522L417.978 139.818H432.68L443.102 175.723H443.625L454.014 139.818H468.748ZM497.123 190.98C491.961 190.98 487.517 189.935 483.793 187.844C480.09 185.731 477.237 182.747 475.233 178.892C473.23 175.015 472.228 170.43 472.228 165.138C472.228 159.976 473.23 155.446 475.233 151.547C477.237 147.648 480.058 144.61 483.695 142.432C487.354 140.254 491.645 139.165 496.567 139.165C499.878 139.165 502.96 139.698 505.813 140.766C508.688 141.811 511.193 143.39 513.327 145.503C515.483 147.616 517.16 150.273 518.358 153.474C519.556 156.654 520.155 160.379 520.155 164.648V168.47H477.782V159.845H507.054C507.054 157.841 506.619 156.066 505.748 154.52C504.876 152.973 503.667 151.765 502.121 150.893C500.596 150 498.821 149.554 496.796 149.554C494.683 149.554 492.81 150.044 491.176 151.024C489.565 151.982 488.301 153.278 487.387 154.912C486.472 156.524 486.004 158.321 485.982 160.303V168.503C485.982 170.986 486.439 173.131 487.354 174.939C488.291 176.747 489.608 178.141 491.307 179.121C493.006 180.101 495.021 180.591 497.351 180.591C498.898 180.591 500.313 180.373 501.598 179.938C502.883 179.502 503.983 178.848 504.898 177.977C505.813 177.106 506.51 176.039 506.989 174.776L519.861 175.625C519.208 178.718 517.868 181.419 515.843 183.727C513.839 186.014 511.247 187.8 508.067 189.085C504.909 190.348 501.261 190.98 497.123 190.98ZM529.238 190V139.818H542.73V148.574H543.253C544.168 145.459 545.703 143.107 547.86 141.517C550.016 139.905 552.499 139.099 555.309 139.099C556.006 139.099 556.757 139.143 557.563 139.23C558.369 139.317 559.077 139.437 559.686 139.589V151.939C559.033 151.743 558.129 151.569 556.975 151.416C555.82 151.264 554.764 151.188 553.806 151.188C551.758 151.188 549.929 151.634 548.317 152.527C546.727 153.398 545.464 154.618 544.527 156.186C543.613 157.754 543.155 159.562 543.155 161.609V190H529.238ZM608.635 154.128L595.893 154.912C595.676 153.823 595.207 152.843 594.489 151.972C593.77 151.079 592.822 150.371 591.646 149.848C590.492 149.304 589.109 149.031 587.497 149.031C585.341 149.031 583.522 149.489 582.041 150.403C580.56 151.296 579.82 152.494 579.82 153.997C579.82 155.195 580.299 156.208 581.257 157.036C582.215 157.863 583.86 158.527 586.19 159.028L595.273 160.858C600.152 161.86 603.789 163.472 606.185 165.693C608.58 167.915 609.778 170.833 609.778 174.449C609.778 177.738 608.809 180.624 606.871 183.107C604.954 185.589 602.319 187.528 598.964 188.922C595.632 190.294 591.788 190.98 587.432 190.98C580.789 190.98 575.496 189.597 571.554 186.831C567.634 184.043 565.336 180.253 564.661 175.462L578.349 174.743C578.763 176.768 579.765 178.315 581.355 179.382C582.945 180.428 584.982 180.95 587.464 180.95C589.904 180.95 591.864 180.482 593.345 179.545C594.848 178.587 595.61 177.357 595.632 175.854C595.61 174.59 595.077 173.556 594.031 172.75C592.986 171.922 591.374 171.291 589.196 170.855L580.506 169.124C575.605 168.143 571.957 166.445 569.561 164.027C567.187 161.609 566 158.527 566 154.781C566 151.558 566.871 148.781 568.614 146.45C570.378 144.12 572.85 142.323 576.03 141.06C579.232 139.796 582.978 139.165 587.268 139.165C593.607 139.165 598.594 140.504 602.232 143.183C605.891 145.862 608.025 149.51 608.635 154.128ZM618.542 190V139.818H632.46V190H618.542ZM625.534 133.349C623.465 133.349 621.69 132.663 620.208 131.291C618.749 129.897 618.02 128.231 618.02 126.293C618.02 124.376 618.749 122.732 620.208 121.359C621.69 119.965 623.465 119.268 625.534 119.268C627.603 119.268 629.367 119.965 630.826 121.359C632.307 122.732 633.048 124.376 633.048 126.293C633.048 128.231 632.307 129.897 630.826 131.291C629.367 132.663 627.603 133.349 625.534 133.349ZM670.3 139.818V150.273H640.08V139.818H670.3ZM646.941 127.795H660.859V174.58C660.859 175.865 661.055 176.866 661.447 177.585C661.839 178.282 662.383 178.772 663.08 179.055C663.799 179.339 664.627 179.48 665.563 179.48C666.217 179.48 666.87 179.426 667.523 179.317C668.177 179.186 668.678 179.088 669.026 179.023L671.215 189.379C670.518 189.597 669.538 189.848 668.275 190.131C667.012 190.436 665.476 190.621 663.668 190.686C660.314 190.817 657.374 190.37 654.847 189.347C652.343 188.323 650.393 186.733 648.999 184.577C647.605 182.42 646.919 179.698 646.941 176.409V127.795ZM687.959 208.818C686.195 208.818 684.539 208.677 682.993 208.393C681.468 208.132 680.205 207.795 679.203 207.381L682.339 196.991C683.973 197.492 685.443 197.765 686.75 197.808C688.079 197.852 689.222 197.547 690.18 196.893C691.161 196.24 691.955 195.129 692.565 193.561L693.382 191.438L675.381 139.818H690.017L700.406 176.67H700.929L711.416 139.818H726.151L706.646 195.423C705.71 198.124 704.436 200.476 702.824 202.48C701.234 204.506 699.219 206.063 696.78 207.152C694.34 208.263 691.4 208.818 687.959 208.818Z" fill="black"/>
<path d="M283.253 234H275.795L284.197 208.545H293.643L302.045 234H294.588L289.02 215.555H288.821L283.253 234ZM281.861 223.957H295.881V229.128H281.861V223.957ZM327.221 208.545V234H321.454L312.257 220.626H312.108V234H305.197V208.545H311.064L320.112 221.869H320.311V208.545H327.221ZM340.984 234H331.19V208.545H340.885C343.503 208.545 345.765 209.055 347.671 210.074C349.585 211.085 351.06 212.543 352.096 214.449C353.14 216.347 353.662 218.621 353.662 221.273C353.662 223.924 353.144 226.203 352.108 228.109C351.072 230.006 349.606 231.464 347.708 232.484C345.811 233.495 343.569 234 340.984 234ZM338.101 228.134H340.735C341.995 228.134 343.068 227.931 343.955 227.525C344.849 227.118 345.529 226.418 345.993 225.424C346.465 224.43 346.701 223.046 346.701 221.273C346.701 219.5 346.461 218.116 345.981 217.121C345.508 216.127 344.812 215.427 343.892 215.021C342.981 214.615 341.862 214.412 340.537 214.412H338.101V228.134ZM364.469 208.545V234H357.559V208.545H364.469ZM378.935 208.545H385.746V225.996C385.737 227.653 385.319 229.111 384.49 230.371C383.67 231.622 382.535 232.6 381.085 233.304C379.643 234 377.982 234.348 376.101 234.348C374.468 234.348 372.977 234.066 371.626 233.503C370.276 232.931 369.199 232.036 368.395 230.818C367.591 229.592 367.193 228.001 367.202 226.045H374.112C374.137 226.683 374.245 227.222 374.435 227.661C374.634 228.1 374.908 228.432 375.256 228.656C375.612 228.871 376.043 228.979 376.548 228.979C377.062 228.979 377.493 228.867 377.841 228.643C378.197 228.419 378.466 228.088 378.649 227.649C378.831 227.201 378.926 226.65 378.935 225.996V208.545ZM414.38 221.273C414.38 224.107 413.829 226.497 412.727 228.444C411.625 230.383 410.137 231.854 408.265 232.857C406.392 233.851 404.304 234.348 402.001 234.348C399.68 234.348 397.584 233.847 395.711 232.844C393.847 231.833 392.364 230.358 391.262 228.419C390.168 226.472 389.621 224.09 389.621 221.273C389.621 218.439 390.168 216.053 391.262 214.114C392.364 212.166 393.847 210.696 395.711 209.701C397.584 208.699 399.68 208.197 402.001 208.197C404.304 208.197 406.392 208.699 408.265 209.701C410.137 210.696 411.625 212.166 412.727 214.114C413.829 216.053 414.38 218.439 414.38 221.273ZM407.27 221.273C407.27 219.748 407.067 218.464 406.661 217.42C406.264 216.367 405.671 215.572 404.884 215.033C404.105 214.487 403.144 214.213 402.001 214.213C400.857 214.213 399.892 214.487 399.105 215.033C398.326 215.572 397.733 216.367 397.327 217.42C396.93 218.464 396.731 219.748 396.731 221.273C396.731 222.797 396.93 224.086 397.327 225.138C397.733 226.182 398.326 226.978 399.105 227.525C399.892 228.063 400.857 228.332 402.001 228.332C403.144 228.332 404.105 228.063 404.884 227.525C405.671 226.978 406.264 226.182 406.661 225.138C407.067 224.086 407.27 222.797 407.27 221.273ZM440.301 208.545V234H434.534L425.337 220.626H425.188V234H418.277V208.545H424.144L433.192 221.869H433.391V208.545H440.301ZM451.943 234V208.545H462.98C464.919 208.545 466.547 208.806 467.864 209.328C469.19 209.85 470.189 210.588 470.86 211.541C471.539 212.494 471.879 213.616 471.879 214.909C471.879 215.845 471.672 216.699 471.257 217.469C470.851 218.24 470.28 218.886 469.542 219.408C468.805 219.922 467.943 220.278 466.957 220.477V220.726C468.051 220.767 469.045 221.045 469.94 221.559C470.835 222.064 471.547 222.764 472.078 223.659C472.608 224.546 472.873 225.59 472.873 226.791C472.873 228.183 472.509 229.422 471.779 230.507C471.059 231.593 470.031 232.446 468.697 233.068C467.363 233.689 465.772 234 463.924 234H451.943ZM458.853 228.482H462.085C463.245 228.482 464.115 228.266 464.695 227.835C465.275 227.396 465.565 226.75 465.565 225.896C465.565 225.3 465.428 224.794 465.155 224.38C464.881 223.966 464.492 223.651 463.986 223.435C463.489 223.22 462.889 223.112 462.184 223.112H458.853V228.482ZM458.853 218.837H461.687C462.292 218.837 462.826 218.741 463.29 218.551C463.754 218.36 464.115 218.087 464.372 217.73C464.637 217.366 464.769 216.923 464.769 216.401C464.769 215.613 464.488 215.013 463.924 214.598C463.361 214.176 462.648 213.964 461.787 213.964H458.853V218.837ZM476.022 234V208.545H487.009C488.898 208.545 490.551 208.889 491.968 209.577C493.385 210.265 494.487 211.255 495.274 212.548C496.061 213.84 496.455 215.39 496.455 217.196C496.455 219.019 496.049 220.556 495.237 221.807C494.433 223.058 493.302 224.003 491.844 224.641C490.394 225.279 488.699 225.598 486.76 225.598H480.198V220.229H485.368C486.18 220.229 486.872 220.129 487.444 219.93C488.024 219.723 488.467 219.396 488.774 218.949C489.089 218.501 489.246 217.917 489.246 217.196C489.246 216.467 489.089 215.874 488.774 215.419C488.467 214.955 488.024 214.615 487.444 214.4C486.872 214.176 486.18 214.064 485.368 214.064H482.932V234H476.022ZM490.936 222.317L497.3 234H489.793L483.579 222.317H490.936ZM506.713 234H499.255L507.657 208.545H517.103L525.505 234H518.048L512.48 215.555H512.281L506.713 234ZM505.321 223.957H519.341V229.128H505.321V223.957ZM550.681 208.545V234H544.914L535.717 220.626H535.568V234H528.657V208.545H534.524L543.572 221.869H543.771V208.545H550.681ZM578.414 218.091H571.404C571.355 217.511 571.222 216.985 571.007 216.512C570.799 216.04 570.509 215.634 570.136 215.294C569.772 214.946 569.329 214.681 568.807 214.499C568.285 214.308 567.692 214.213 567.029 214.213C565.869 214.213 564.887 214.495 564.084 215.058C563.288 215.622 562.683 216.43 562.269 217.482C561.863 218.534 561.66 219.798 561.66 221.273C561.66 222.83 561.867 224.136 562.281 225.188C562.704 226.232 563.313 227.019 564.108 227.549C564.904 228.071 565.861 228.332 566.98 228.332C567.618 228.332 568.189 228.254 568.695 228.096C569.2 227.931 569.639 227.694 570.012 227.388C570.385 227.081 570.688 226.712 570.92 226.282C571.16 225.842 571.321 225.349 571.404 224.803L578.414 224.852C578.331 225.929 578.029 227.027 577.507 228.146C576.985 229.256 576.243 230.284 575.282 231.228C574.329 232.165 573.148 232.919 571.74 233.49C570.331 234.062 568.695 234.348 566.83 234.348C564.494 234.348 562.397 233.847 560.541 232.844C558.694 231.842 557.231 230.367 556.154 228.419C555.085 226.472 554.551 224.09 554.551 221.273C554.551 218.439 555.097 216.053 556.191 214.114C557.285 212.166 558.76 210.696 560.616 209.701C562.472 208.699 564.543 208.197 566.83 208.197C568.438 208.197 569.917 208.417 571.268 208.856C572.618 209.295 573.803 209.937 574.822 210.783C575.841 211.62 576.662 212.651 577.283 213.877C577.905 215.104 578.282 216.508 578.414 218.091ZM582.249 234V208.545H589.16V218.489H598.308V208.545H605.218V234H598.308V224.057H589.16V234H582.249Z" fill="#9C1447"/>
</svg>
